<svg width="235" height="34" viewBox="0 0 235 34" fill="none" xmlns="http://www.w3.org/2000/svg">
<path d="M3.89613 7.232C3.89613 8 4.08813 8.68267 4.47213 9.28C4.87746 9.87733 5.36813 10.4 5.94413 10.848C6.52013 11.296 7.29879 11.84 8.28013 12.48C9.34679 13.1627 10.2001 13.76 10.8401 14.272C11.4801 14.784 12.0241 15.4133 12.4721 16.16C12.9201 16.8853 13.1441 17.728 13.1441 18.688C13.1441 19.7973 12.8455 20.7893 12.2481 21.664C11.6508 22.5173 10.8188 23.1893 9.75213 23.68C8.70679 24.1493 7.53346 24.384 6.23213 24.384C5.27213 24.384 4.26946 24.256 3.22413 24C2.17879 23.7227 1.47479 23.424 1.11213 23.104C1.00546 23.0187 0.920125 22.944 0.856125 22.88C0.813459 22.7947 0.792125 22.6667 0.792125 22.496L0.696125 17.408V17.376C0.696125 17.2907 0.749458 17.248 0.856125 17.248C0.962792 17.2267 1.02679 17.2587 1.04813 17.344C1.68813 18.6453 2.24279 19.7013 2.71213 20.512C3.20279 21.3227 3.81079 22.0373 4.53613 22.656C5.28279 23.2747 6.12546 23.584 7.06413 23.584C7.91746 23.584 8.62146 23.36 9.17613 22.912C9.73079 22.4427 10.0081 21.6533 10.0081 20.544C10.0081 19.6053 9.79479 18.784 9.36813 18.08C8.96279 17.376 8.46146 16.7787 7.86413 16.288C7.26679 15.7973 6.44546 15.2107 5.40013 14.528C4.37613 13.8667 3.57613 13.3013 3.00013 12.832C2.44546 12.3627 1.96546 11.7973 1.56013 11.136C1.15479 10.4747 0.952125 9.696 0.952125 8.8C0.952125 7.66933 1.27213 6.72 1.91213 5.952C2.57346 5.16267 3.41613 4.58667 4.44013 4.224C5.46413 3.84 6.54146 3.648 7.67213 3.648C8.41879 3.648 9.17613 3.72267 9.94413 3.872C10.7121 4 11.3308 4.16 11.8001 4.352C11.9921 4.43733 12.1201 4.53333 12.1841 4.64C12.2481 4.72533 12.2801 4.84267 12.2801 4.992V9.696C12.2801 9.76 12.2268 9.81333 12.1201 9.856C12.0135 9.87733 11.9495 9.856 11.9281 9.792L11.6721 9.184C11.1388 7.84 10.5095 6.69867 9.78413 5.76C9.08013 4.82133 8.08813 4.352 6.80813 4.352C5.95479 4.352 5.25079 4.59733 4.69613 5.088C4.16279 5.57867 3.89613 6.29333 3.89613 7.232ZM41.4529 23.616C41.4955 23.616 41.5169 23.68 41.5169 23.808C41.5169 23.936 41.4955 24 41.4529 24C40.7275 24 40.1515 23.9893 39.7249 23.968L37.3569 23.936L34.9569 23.968C34.5515 23.9893 33.9969 24 33.2929 24C33.2289 24 33.1969 23.936 33.1969 23.808C33.1969 23.68 33.2289 23.616 33.2929 23.616C34.1889 23.616 34.7969 23.5093 35.1169 23.296C35.4369 23.0827 35.5969 22.6347 35.5969 21.952L35.5649 21.408L34.8929 8.32L28.3009 23.776C28.2582 23.8613 28.1729 23.904 28.0449 23.904C27.9169 23.904 27.8315 23.8613 27.7889 23.776L19.6929 8.384L19.4369 19.936C19.4155 21.088 19.6395 21.9947 20.1089 22.656C20.5995 23.296 21.2822 23.616 22.1569 23.616C22.2209 23.616 22.2529 23.68 22.2529 23.808C22.2529 23.936 22.2209 24 22.1569 24C21.5809 24 21.1329 23.9893 20.8129 23.968L19.0529 23.936L17.0369 23.968C16.6955 23.9893 16.2369 24 15.6609 24C15.5969 24 15.5649 23.936 15.5649 23.808C15.5649 23.68 15.5969 23.616 15.6609 23.616C16.5355 23.616 17.2289 23.2853 17.7409 22.624C18.2529 21.9627 18.5195 21.0667 18.5409 19.936L18.8289 6.688L18.7969 6.656C18.3702 5.86666 17.9222 5.29067 17.4529 4.928C17.0049 4.56533 16.4822 4.384 15.8849 4.384C15.8209 4.384 15.7889 4.32 15.7889 4.192C15.7889 4.064 15.8209 4 15.8849 4L17.3889 4.032C17.6875 4.05333 18.0715 4.064 18.5409 4.064L20.2369 4.032C20.4289 4.01067 20.6742 4 20.9729 4C21.2502 4 21.4635 4.096 21.6129 4.288C21.7622 4.48 22.0395 4.93867 22.4449 5.664L29.4209 18.752L35.5009 4.8C35.6289 4.50133 35.7569 4.29867 35.8849 4.192C36.0342 4.064 36.2262 4 36.4609 4C36.6529 4 36.8662 4.01067 37.1009 4.032C37.3569 4.05333 37.6449 4.064 37.9649 4.064L39.8529 4.032C40.1515 4.01067 40.5782 4 41.1329 4C41.1969 4 41.2289 4.064 41.2289 4.192C41.2289 4.32 41.1969 4.384 41.1329 4.384C40.1302 4.384 39.4049 4.58667 38.9569 4.992C38.5089 5.39733 38.3062 6.02667 38.3489 6.88L39.1169 21.408C39.1595 22.0693 39.2342 22.5493 39.3409 22.848C39.4689 23.1467 39.6822 23.3493 39.9809 23.456C40.3009 23.5627 40.7915 23.616 41.4529 23.616ZM68.8904 23.616C68.933 23.616 68.9544 23.68 68.9544 23.808C68.9544 23.936 68.933 24 68.8904 24C68.165 24 67.589 23.9893 67.1624 23.968L64.7944 23.936L62.3944 23.968C61.989 23.9893 61.4344 24 60.7304 24C60.6664 24 60.6344 23.936 60.6344 23.808C60.6344 23.68 60.6664 23.616 60.7304 23.616C61.6264 23.616 62.2344 23.5093 62.5544 23.296C62.8744 23.0827 63.0344 22.6347 63.0344 21.952L63.0024 21.408L62.3304 8.32L55.7384 23.776C55.6957 23.8613 55.6104 23.904 55.4824 23.904C55.3544 23.904 55.269 23.8613 55.2264 23.776L47.1304 8.384L46.8744 19.936C46.853 21.088 47.077 21.9947 47.5464 22.656C48.037 23.296 48.7197 23.616 49.5944 23.616C49.6584 23.616 49.6904 23.68 49.6904 23.808C49.6904 23.936 49.6584 24 49.5944 24C49.0184 24 48.5704 23.9893 48.2504 23.968L46.4904 23.936L44.4744 23.968C44.133 23.9893 43.6744 24 43.0984 24C43.0344 24 43.0024 23.936 43.0024 23.808C43.0024 23.68 43.0344 23.616 43.0984 23.616C43.973 23.616 44.6664 23.2853 45.1784 22.624C45.6904 21.9627 45.957 21.0667 45.9784 19.936L46.2664 6.688L46.2344 6.656C45.8077 5.86666 45.3597 5.29067 44.8904 4.928C44.4424 4.56533 43.9197 4.384 43.3224 4.384C43.2584 4.384 43.2264 4.32 43.2264 4.192C43.2264 4.064 43.2584 4 43.3224 4L44.8264 4.032C45.125 4.05333 45.509 4.064 45.9784 4.064L47.6744 4.032C47.8664 4.01067 48.1117 4 48.4104 4C48.6877 4 48.901 4.096 49.0504 4.288C49.1997 4.48 49.477 4.93867 49.8824 5.664L56.8584 18.752L62.9384 4.8C63.0664 4.50133 63.1944 4.29867 63.3224 4.192C63.4717 4.064 63.6637 4 63.8984 4C64.0904 4 64.3037 4.01067 64.5384 4.032C64.7944 4.05333 65.0824 4.064 65.4024 4.064L67.2904 4.032C67.589 4.01067 68.0157 4 68.5704 4C68.6344 4 68.6664 4.064 68.6664 4.192C68.6664 4.32 68.6344 4.384 68.5704 4.384C67.5677 4.384 66.8424 4.58667 66.3944 4.992C65.9464 5.39733 65.7437 6.02667 65.7864 6.88L66.5544 21.408C66.597 22.0693 66.6717 22.5493 66.7784 22.848C66.9064 23.1467 67.1197 23.3493 67.4184 23.456C67.7384 23.5627 68.229 23.616 68.8904 23.616ZM92.8719 23.616C92.9572 23.6373 92.9892 23.712 92.9679 23.84C92.9679 23.9467 92.9359 24 92.8719 24H87.6239C87.0265 24 86.0025 23.4773 84.5519 22.432C82.9519 23.7333 80.9145 24.384 78.4399 24.384C76.9679 24.384 75.7305 24.1707 74.7279 23.744C73.7252 23.3173 72.9785 22.752 72.4879 22.048C71.9972 21.344 71.7519 20.5973 71.7519 19.808C71.7519 18.784 72.1039 17.8667 72.8079 17.056C73.5119 16.2453 74.5785 15.3067 76.0079 14.24C75.6665 13.792 75.3359 13.28 75.0159 12.704C74.7172 12.1067 74.4825 11.5413 74.3119 11.008C74.1625 10.4747 74.0879 9.888 74.0879 9.248C74.0879 7.52 74.6319 6.10133 75.7199 4.992C76.8292 3.88267 78.3332 3.328 80.2319 3.328C81.5545 3.328 82.5999 3.616 83.3679 4.192C84.1359 4.74667 84.5199 5.52533 84.5199 6.528C84.5199 7.36 84.2745 8.128 83.7839 8.832C83.3145 9.51467 82.7705 10.0907 82.1519 10.56C81.5332 11.0293 80.5732 11.7013 79.2719 12.576C80.8079 14.8587 82.9519 17.0987 85.7039 19.296C85.8959 18.5493 85.9919 17.7067 85.9919 16.768C85.9919 15.5307 85.7892 14.6347 85.3839 14.08C84.9785 13.504 84.3172 13.216 83.3999 13.216C83.3572 13.216 83.3252 13.152 83.3039 13.024C83.3039 12.896 83.3359 12.832 83.3999 12.832L91.0159 12.8C91.0799 12.8 91.1119 12.864 91.1119 12.992C91.1119 13.12 91.0799 13.184 91.0159 13.184C90.3759 13.184 89.8959 13.2587 89.5759 13.408C89.2772 13.536 89.0425 13.76 88.8719 14.08C88.7225 14.4 88.5519 14.912 88.3599 15.616C88.1252 16.4693 87.8799 17.248 87.6239 17.952C87.3679 18.656 87.0372 19.3387 86.6319 20C88.0185 21.0453 89.2452 21.8667 90.3119 22.464C91.3999 23.0613 92.2532 23.4453 92.8719 23.616ZM77.0959 6.496C77.0959 8.16 77.6825 9.96267 78.8559 11.904C80.3705 10.432 81.1279 8.864 81.1279 7.2C81.1279 6.26133 80.9039 5.52533 80.4559 4.992C80.0292 4.45867 79.4639 4.192 78.7599 4.192C78.1625 4.192 77.7359 4.384 77.4799 4.768C77.2239 5.152 77.0959 5.728 77.0959 6.496ZM80.9039 22.816C82.1412 22.816 83.1652 22.5387 83.9759 21.984C83.6345 21.7493 83.1759 21.3973 82.5999 20.928C81.5119 20.0533 80.4132 19.0827 79.3039 18.016C78.2159 16.928 77.2559 15.8613 76.4239 14.816C75.4639 15.8187 74.9839 16.8747 74.9839 17.984C74.9839 18.816 75.2185 19.6053 75.6879 20.352C76.1785 21.0773 76.8719 21.6747 77.7679 22.144C78.6639 22.592 79.7092 22.816 80.9039 22.816ZM99.4901 21.28C99.4901 21.9627 99.5648 22.464 99.7141 22.784C99.8635 23.0827 100.141 23.296 100.546 23.424C100.973 23.552 101.645 23.616 102.562 23.616C102.626 23.616 102.658 23.68 102.658 23.808C102.658 23.936 102.626 24 102.562 24C101.687 24 101.005 23.9893 100.514 23.968L97.7301 23.936L95.3941 23.968C94.9675 23.9893 94.3915 24 93.6661 24C93.6021 24 93.5701 23.936 93.5701 23.808C93.5701 23.68 93.6021 23.616 93.6661 23.616C94.3488 23.616 94.8395 23.5627 95.1381 23.456C95.4581 23.3493 95.6715 23.1467 95.7781 22.848C95.8848 22.528 95.9381 22.048 95.9381 21.408V6.592C95.9381 5.952 95.8848 5.48267 95.7781 5.184C95.6715 4.88533 95.4581 4.68266 95.1381 4.576C94.8181 4.448 94.3275 4.384 93.6661 4.384C93.6021 4.384 93.5701 4.32 93.5701 4.192C93.5701 4.064 93.6021 4 93.6661 4L95.3621 4.032C96.3435 4.07467 97.1221 4.096 97.6981 4.096C98.2101 4.096 98.8181 4.064 99.5221 4C99.7995 3.97867 100.151 3.95733 100.578 3.936C101.005 3.91467 101.495 3.904 102.05 3.904C104.226 3.904 105.943 4.36267 107.202 5.28C108.461 6.176 109.09 7.57333 109.09 9.472C109.09 10.7947 108.749 11.9147 108.066 12.832C107.383 13.7493 106.498 14.4427 105.41 14.912C104.343 15.3813 103.245 15.616 102.114 15.616C101.538 15.616 101.037 15.5627 100.61 15.456C100.567 15.456 100.546 15.4027 100.546 15.296C100.546 15.232 100.557 15.168 100.578 15.104C100.621 15.04 100.663 15.0187 100.706 15.04C101.026 15.1253 101.389 15.168 101.794 15.168C102.775 15.168 103.586 14.7093 104.226 13.792C104.887 12.8747 105.218 11.5733 105.218 9.888C105.218 8.20267 104.855 6.90133 104.13 5.984C103.426 5.06667 102.391 4.608 101.026 4.608C100.429 4.608 100.023 4.74667 99.8101 5.024C99.5968 5.30133 99.4901 5.84533 99.4901 6.656V21.28ZM114.042 13.184C114.042 13.8027 114.255 14.336 114.682 14.784C115.13 15.232 115.77 15.7013 116.602 16.192C117.412 16.6613 118.01 17.0347 118.394 17.312C118.799 17.568 119.162 17.9413 119.482 18.432C119.802 18.9013 119.962 19.4773 119.962 20.16C119.962 20.8853 119.78 21.568 119.418 22.208C119.055 22.848 118.511 23.3707 117.786 23.776C117.06 24.16 116.196 24.352 115.194 24.352C114.02 24.352 112.911 24.064 111.866 23.488C111.738 23.36 111.674 23.232 111.674 23.104L111.61 19.936C111.61 19.872 111.663 19.84 111.77 19.84C111.898 19.8187 111.972 19.8293 111.994 19.872C112.335 20.9387 112.9 21.8453 113.69 22.592C114.479 23.3387 115.279 23.712 116.09 23.712C116.538 23.712 116.89 23.5733 117.146 23.296C117.423 23.0187 117.562 22.6133 117.562 22.08C117.562 21.2907 117.338 20.672 116.89 20.224C116.442 19.7547 115.78 19.2747 114.906 18.784C114.159 18.3787 113.594 18.048 113.21 17.792C112.826 17.536 112.484 17.1733 112.186 16.704C111.887 16.2347 111.738 15.6587 111.738 14.976C111.738 13.7173 112.186 12.8 113.082 12.224C113.978 11.6267 115.076 11.328 116.378 11.328C116.868 11.328 117.306 11.36 117.69 11.424C118.095 11.488 118.543 11.616 119.034 11.808C119.226 11.872 119.322 11.9893 119.322 12.16C119.322 12.6933 119.311 13.1093 119.29 13.408L119.258 15.008C119.258 15.072 119.194 15.104 119.066 15.104C118.938 15.104 118.874 15.072 118.874 15.008C118.874 14.6027 118.703 14.1653 118.362 13.696C118.02 13.2053 117.572 12.7893 117.018 12.448C116.484 12.1067 115.93 11.936 115.354 11.936C114.479 11.936 114.042 12.352 114.042 13.184ZM135.159 11.648C135.202 11.648 135.223 11.712 135.223 11.84C135.223 11.968 135.202 12.032 135.159 12.032C134.476 12.032 133.879 12.3307 133.367 12.928C132.876 13.504 132.428 14.3467 132.023 15.456L128.471 24.896C127.34 27.8827 126.252 29.9733 125.207 31.168C124.183 32.384 123.042 32.992 121.783 32.992C121.143 32.992 120.652 32.8533 120.311 32.576C119.97 32.32 119.799 31.936 119.799 31.424C119.799 30.9333 119.948 30.56 120.247 30.304C120.546 30.048 120.908 29.92 121.335 29.92C121.57 29.92 121.762 29.952 121.911 30.016C122.082 30.08 122.284 30.1867 122.519 30.336C122.924 30.6133 123.308 30.752 123.671 30.752C124.162 30.752 124.599 30.56 124.983 30.176C125.388 29.8133 125.804 29.1947 126.231 28.32C126.658 27.4667 127.17 26.24 127.767 24.64L122.647 14.304C122.178 13.3867 121.804 12.7787 121.527 12.48C121.271 12.1813 120.951 12.032 120.567 12.032C120.503 12.032 120.471 11.968 120.471 11.84C120.471 11.712 120.503 11.648 120.567 11.648C121.164 11.648 121.623 11.6587 121.943 11.68L123.287 11.712L125.495 11.68C125.836 11.6587 126.295 11.648 126.871 11.648C126.935 11.648 126.967 11.712 126.967 11.84C126.967 11.968 126.935 12.032 126.871 12.032C126.316 12.032 125.911 12.0853 125.655 12.192C125.399 12.2773 125.271 12.4267 125.271 12.64C125.271 12.8107 125.335 13.024 125.463 13.28L129.239 20.992L131.159 15.424C131.351 14.8693 131.447 14.368 131.447 13.92C131.447 13.3227 131.276 12.864 130.935 12.544C130.594 12.2027 130.103 12.032 129.463 12.032C129.42 12.032 129.399 11.968 129.399 11.84C129.399 11.712 129.42 11.648 129.463 11.648C130.039 11.648 130.476 11.6587 130.775 11.68L132.695 11.712L133.975 11.68C134.231 11.6587 134.626 11.648 135.159 11.648ZM142.191 24.384C140.783 24.384 139.588 24.0853 138.607 23.488C137.647 22.8693 136.922 22.08 136.431 21.12C135.962 20.1387 135.727 19.1147 135.727 18.048C135.727 16.704 136.1 15.5307 136.847 14.528C137.594 13.504 138.543 12.7253 139.695 12.192C140.868 11.6373 142.063 11.36 143.279 11.36C144.303 11.36 145.22 11.5733 146.031 12C146.863 12.4267 147.279 13.0133 147.279 13.76C147.279 14.1653 147.119 14.5173 146.799 14.816C146.5 15.0933 146.074 15.232 145.519 15.232C145.007 15.232 144.602 15.104 144.303 14.848C144.004 14.5707 143.759 14.1547 143.567 13.6C143.375 13.0027 143.183 12.5973 142.991 12.384C142.82 12.1493 142.5 12.032 142.031 12.032C141.114 12.032 140.378 12.4907 139.823 13.408C139.29 14.304 139.023 15.4987 139.023 16.992C139.023 18.7627 139.418 20.1813 140.207 21.248C140.996 22.2933 142.255 22.816 143.983 22.816C144.559 22.816 145.05 22.752 145.455 22.624C145.882 22.496 146.415 22.2827 147.055 21.984H147.087C147.151 21.984 147.204 22.016 147.247 22.08C147.311 22.144 147.322 22.1973 147.279 22.24C146.49 22.9653 145.7 23.5093 144.911 23.872C144.122 24.2133 143.215 24.384 142.191 24.384ZM164.009 23.616C164.094 23.616 164.137 23.68 164.137 23.808C164.137 23.936 164.094 24 164.009 24C163.454 24 163.006 23.9893 162.665 23.968L160.809 23.936L158.889 23.968C158.569 23.9893 158.132 24 157.577 24C157.534 24 157.513 23.936 157.513 23.808C157.513 23.68 157.534 23.616 157.577 23.616C158.238 23.616 158.686 23.4667 158.921 23.168C159.177 22.848 159.305 22.2613 159.305 21.408V16.8C159.305 15.648 159.092 14.7947 158.665 14.24C158.238 13.6853 157.577 13.408 156.681 13.408C156.169 13.408 155.636 13.5147 155.081 13.728C154.548 13.9413 154.078 14.2293 153.673 14.592V21.408C153.673 22.2613 153.79 22.848 154.025 23.168C154.281 23.4667 154.74 23.616 155.401 23.616C155.486 23.616 155.529 23.68 155.529 23.808C155.529 23.936 155.486 24 155.401 24C154.846 24 154.398 23.9893 154.057 23.968L152.201 23.936L150.281 23.968C149.961 23.9893 149.524 24 148.969 24C148.926 24 148.905 23.936 148.905 23.808C148.905 23.68 148.926 23.616 148.969 23.616C149.63 23.616 150.078 23.4667 150.313 23.168C150.569 22.848 150.697 22.2613 150.697 21.408V5.152C150.697 4.40533 150.622 3.872 150.473 3.552C150.345 3.232 150.11 3.072 149.769 3.072C149.47 3.072 149.065 3.18933 148.553 3.424H148.521C148.457 3.424 148.393 3.37067 148.329 3.264C148.286 3.136 148.286 3.06133 148.329 3.04L153.001 0.831999L153.161 0.799999C153.268 0.799999 153.374 0.853333 153.481 0.959999C153.609 1.04533 153.673 1.13067 153.673 1.216V13.888C155.188 12.1387 156.809 11.264 158.537 11.264C159.689 11.264 160.596 11.6373 161.257 12.384C161.94 13.1093 162.281 14.0693 162.281 15.264V21.408C162.281 22.2613 162.398 22.848 162.633 23.168C162.889 23.4667 163.348 23.616 164.009 23.616ZM172.162 24.416C170.839 24.416 169.677 24.1173 168.674 23.52C167.693 22.9013 166.935 22.08 166.402 21.056C165.869 20.0107 165.602 18.88 165.602 17.664C165.602 16.2773 165.954 15.104 166.658 14.144C167.362 13.1627 168.258 12.4373 169.346 11.968C170.434 11.4773 171.554 11.232 172.706 11.232C174.029 11.232 175.181 11.5413 176.162 12.16C177.143 12.7787 177.89 13.6 178.402 14.624C178.935 15.6267 179.202 16.704 179.202 17.856C179.202 19.136 178.882 20.2773 178.242 21.28C177.602 22.2613 176.738 23.0293 175.65 23.584C174.583 24.1387 173.421 24.416 172.162 24.416ZM173.122 23.744C173.954 23.744 174.583 23.3387 175.01 22.528C175.458 21.696 175.682 20.512 175.682 18.976C175.682 17.4827 175.49 16.2027 175.106 15.136C174.722 14.0693 174.221 13.2693 173.602 12.736C172.983 12.1813 172.322 11.904 171.618 11.904C169.911 11.904 169.058 13.4293 169.058 16.48C169.058 17.9093 169.239 19.1787 169.602 20.288C169.965 21.376 170.455 22.2293 171.074 22.848C171.693 23.4453 172.375 23.744 173.122 23.744ZM181.354 24C181.312 24 181.29 23.936 181.29 23.808C181.29 23.68 181.312 23.616 181.354 23.616C182.016 23.616 182.464 23.4667 182.698 23.168C182.954 22.848 183.082 22.2613 183.082 21.408L183.114 5.152C183.114 4.40533 183.04 3.872 182.89 3.552C182.762 3.232 182.528 3.072 182.186 3.072C181.909 3.072 181.504 3.18933 180.97 3.424H180.938C180.874 3.424 180.81 3.37067 180.746 3.264C180.704 3.136 180.704 3.06133 180.746 3.04L185.45 0.831999L185.578 0.799999C185.685 0.799999 185.802 0.853333 185.93 0.959999C186.058 1.04533 186.122 1.13067 186.122 1.216V21.408C186.122 22.2613 186.24 22.848 186.474 23.168C186.709 23.4667 187.157 23.616 187.818 23.616C187.904 23.616 187.946 23.68 187.946 23.808C187.946 23.936 187.904 24 187.818 24C187.285 24 186.858 23.9893 186.538 23.968L184.586 23.936L182.666 23.968C182.346 23.9893 181.909 24 181.354 24ZM196.381 24.416C195.058 24.416 193.896 24.1173 192.893 23.52C191.912 22.9013 191.154 22.08 190.621 21.056C190.088 20.0107 189.821 18.88 189.821 17.664C189.821 16.2773 190.173 15.104 190.877 14.144C191.581 13.1627 192.477 12.4373 193.565 11.968C194.653 11.4773 195.773 11.232 196.925 11.232C198.248 11.232 199.4 11.5413 200.381 12.16C201.362 12.7787 202.109 13.6 202.621 14.624C203.154 15.6267 203.421 16.704 203.421 17.856C203.421 19.136 203.101 20.2773 202.461 21.28C201.821 22.2613 200.957 23.0293 199.869 23.584C198.802 24.1387 197.64 24.416 196.381 24.416ZM197.341 23.744C198.173 23.744 198.802 23.3387 199.229 22.528C199.677 21.696 199.901 20.512 199.901 18.976C199.901 17.4827 199.709 16.2027 199.325 15.136C198.941 14.0693 198.44 13.2693 197.821 12.736C197.202 12.1813 196.541 11.904 195.837 11.904C194.13 11.904 193.277 13.4293 193.277 16.48C193.277 17.9093 193.458 19.1787 193.821 20.288C194.184 21.376 194.674 22.2293 195.293 22.848C195.912 23.4453 196.594 23.744 197.341 23.744ZM212.645 22.592C213.904 22.8053 214.906 23.0187 215.653 23.232C216.4 23.4453 217.04 23.808 217.573 24.32C218.128 24.832 218.405 25.5573 218.405 26.496C218.405 27.648 218.032 28.7253 217.285 29.728C216.56 30.7307 215.568 31.5307 214.309 32.128C213.072 32.7253 211.728 33.024 210.277 33.024C208.698 33.024 207.408 32.6827 206.405 32C205.402 31.3173 204.901 30.432 204.901 29.344C204.901 28.6187 205.136 27.872 205.605 27.104C206.074 26.336 206.949 25.4933 208.229 24.576C207.589 24.384 207.088 24.1067 206.725 23.744C206.384 23.3813 206.213 22.8907 206.213 22.272C206.213 21.7387 206.416 21.1947 206.821 20.64C207.248 20.064 207.898 19.5307 208.773 19.04C207.834 18.72 207.109 18.2293 206.597 17.568C206.085 16.9067 205.829 16.192 205.829 15.424C205.829 14.5707 206.106 13.8453 206.661 13.248C207.216 12.6507 207.92 12.2027 208.773 11.904C209.626 11.584 210.48 11.424 211.333 11.424C212.762 11.424 213.946 11.776 214.885 12.48C215.461 12.096 216.026 11.808 216.581 11.616C217.136 11.424 217.733 11.328 218.373 11.328C218.544 11.328 218.629 11.6267 218.629 12.224C218.629 12.5227 218.586 12.8533 218.501 13.216C218.416 13.5787 218.341 13.728 218.277 13.664C217.381 13.3013 216.581 13.12 215.877 13.12H215.621C216.176 13.7813 216.453 14.528 216.453 15.36C216.453 16.1707 216.176 16.8853 215.621 17.504C215.088 18.1013 214.394 18.56 213.541 18.88C212.688 19.2 211.813 19.36 210.917 19.36C210.341 19.36 209.797 19.296 209.285 19.168C208.858 19.5093 208.645 19.9467 208.645 20.48C208.645 20.9493 208.816 21.312 209.157 21.568C209.52 21.824 209.957 22.016 210.469 22.144C210.981 22.272 211.706 22.4213 212.645 22.592ZM210.277 12.032C209.381 12.032 208.933 12.8747 208.933 14.56C208.933 15.6693 209.2 16.6507 209.733 17.504C210.266 18.3573 210.949 18.784 211.781 18.784C212.186 18.784 212.538 18.5707 212.837 18.144C213.157 17.7173 213.317 17.0453 213.317 16.128C213.317 14.976 213.018 14.0053 212.421 13.216C211.824 12.4267 211.109 12.032 210.277 12.032ZM211.973 32C213.082 32 213.978 31.6693 214.661 31.008C215.365 30.368 215.717 29.504 215.717 28.416C215.717 27.6053 215.482 26.976 215.013 26.528C214.565 26.1013 214.01 25.792 213.349 25.6C212.709 25.4293 211.824 25.2587 210.693 25.088L208.965 24.8C208.368 25.504 208.069 26.5067 208.069 27.808C208.069 29.152 208.432 30.1867 209.157 30.912C209.882 31.6373 210.821 32 211.973 32ZM234.128 11.648C234.17 11.648 234.192 11.712 234.192 11.84C234.192 11.968 234.17 12.032 234.128 12.032C233.445 12.032 232.848 12.3307 232.336 12.928C231.845 13.504 231.397 14.3467 230.992 15.456L227.44 24.896C226.309 27.8827 225.221 29.9733 224.176 31.168C223.152 32.384 222.01 32.992 220.752 32.992C220.112 32.992 219.621 32.8533 219.28 32.576C218.938 32.32 218.768 31.936 218.768 31.424C218.768 30.9333 218.917 30.56 219.216 30.304C219.514 30.048 219.877 29.92 220.304 29.92C220.538 29.92 220.73 29.952 220.88 30.016C221.05 30.08 221.253 30.1867 221.488 30.336C221.893 30.6133 222.277 30.752 222.64 30.752C223.13 30.752 223.568 30.56 223.952 30.176C224.357 29.8133 224.773 29.1947 225.2 28.32C225.626 27.4667 226.138 26.24 226.736 24.64L221.616 14.304C221.146 13.3867 220.773 12.7787 220.496 12.48C220.24 12.1813 219.92 12.032 219.536 12.032C219.472 12.032 219.44 11.968 219.44 11.84C219.44 11.712 219.472 11.648 219.536 11.648C220.133 11.648 220.592 11.6587 220.912 11.68L222.256 11.712L224.464 11.68C224.805 11.6587 225.264 11.648 225.84 11.648C225.904 11.648 225.936 11.712 225.936 11.84C225.936 11.968 225.904 12.032 225.84 12.032C225.285 12.032 224.88 12.0853 224.624 12.192C224.368 12.2773 224.24 12.4267 224.24 12.64C224.24 12.8107 224.304 13.024 224.432 13.28L228.208 20.992L230.128 15.424C230.32 14.8693 230.416 14.368 230.416 13.92C230.416 13.3227 230.245 12.864 229.904 12.544C229.562 12.2027 229.072 12.032 228.432 12.032C228.389 12.032 228.368 11.968 228.368 11.84C228.368 11.712 228.389 11.648 228.432 11.648C229.008 11.648 229.445 11.6587 229.744 11.68L231.664 11.712L232.944 11.68C233.2 11.6587 233.594 11.648 234.128 11.648Z" fill="black"/>
</svg>
