<svg width="243" height="42" viewBox="0 0 243 42" fill="none" xmlns="http://www.w3.org/2000/svg">
<g filter="url(#filter0_d_8_20078)">
<path d="M7.89613 7.232C7.89613 8 8.08813 8.68267 8.47213 9.28C8.87746 9.87733 9.36813 10.4 9.94413 10.848C10.5201 11.296 11.2988 11.84 12.2801 12.48C13.3468 13.1627 14.2001 13.76 14.8401 14.272C15.4801 14.784 16.0241 15.4133 16.4721 16.16C16.9201 16.8853 17.1441 17.728 17.1441 18.688C17.1441 19.7973 16.8455 20.7893 16.2481 21.664C15.6508 22.5173 14.8188 23.1893 13.7521 23.68C12.7068 24.1493 11.5335 24.384 10.2321 24.384C9.27213 24.384 8.26946 24.256 7.22413 24C6.17879 23.7227 5.47479 23.424 5.11213 23.104C5.00546 23.0187 4.92013 22.944 4.85613 22.88C4.81346 22.7947 4.79213 22.6667 4.79213 22.496L4.69613 17.408V17.376C4.69613 17.2907 4.74946 17.248 4.85613 17.248C4.96279 17.2267 5.02679 17.2587 5.04813 17.344C5.68813 18.6453 6.24279 19.7013 6.71213 20.512C7.20279 21.3227 7.81079 22.0373 8.53613 22.656C9.28279 23.2747 10.1255 23.584 11.0641 23.584C11.9175 23.584 12.6215 23.36 13.1761 22.912C13.7308 22.4427 14.0081 21.6533 14.0081 20.544C14.0081 19.6053 13.7948 18.784 13.3681 18.08C12.9628 17.376 12.4615 16.7787 11.8641 16.288C11.2668 15.7973 10.4455 15.2107 9.40013 14.528C8.37613 13.8667 7.57613 13.3013 7.00013 12.832C6.44546 12.3627 5.96546 11.7973 5.56013 11.136C5.15479 10.4747 4.95213 9.696 4.95213 8.8C4.95213 7.66933 5.27213 6.72 5.91213 5.952C6.57346 5.16267 7.41613 4.58667 8.44013 4.224C9.46413 3.84 10.5415 3.648 11.6721 3.648C12.4188 3.648 13.1761 3.72267 13.9441 3.872C14.7121 4 15.3308 4.16 15.8001 4.352C15.9921 4.43733 16.1201 4.53333 16.1841 4.64C16.2481 4.72533 16.2801 4.84267 16.2801 4.992V9.696C16.2801 9.76 16.2268 9.81333 16.1201 9.856C16.0135 9.87733 15.9495 9.856 15.9281 9.792L15.6721 9.184C15.1388 7.84 14.5095 6.69867 13.7841 5.76C13.0801 4.82133 12.0881 4.352 10.8081 4.352C9.95479 4.352 9.25079 4.59733 8.69613 5.088C8.16279 5.57867 7.89613 6.29333 7.89613 7.232ZM45.4529 23.616C45.4955 23.616 45.5169 23.68 45.5169 23.808C45.5169 23.936 45.4955 24 45.4529 24C44.7275 24 44.1515 23.9893 43.7249 23.968L41.3569 23.936L38.9569 23.968C38.5515 23.9893 37.9969 24 37.2929 24C37.2289 24 37.1969 23.936 37.1969 23.808C37.1969 23.68 37.2289 23.616 37.2929 23.616C38.1889 23.616 38.7969 23.5093 39.1169 23.296C39.4369 23.0827 39.5969 22.6347 39.5969 21.952L39.5649 21.408L38.8929 8.32L32.3009 23.776C32.2582 23.8613 32.1729 23.904 32.0449 23.904C31.9169 23.904 31.8315 23.8613 31.7889 23.776L23.6929 8.384L23.4369 19.936C23.4155 21.088 23.6395 21.9947 24.1089 22.656C24.5995 23.296 25.2822 23.616 26.1569 23.616C26.2209 23.616 26.2529 23.68 26.2529 23.808C26.2529 23.936 26.2209 24 26.1569 24C25.5809 24 25.1329 23.9893 24.8129 23.968L23.0529 23.936L21.0369 23.968C20.6955 23.9893 20.2369 24 19.6609 24C19.5969 24 19.5649 23.936 19.5649 23.808C19.5649 23.68 19.5969 23.616 19.6609 23.616C20.5355 23.616 21.2289 23.2853 21.7409 22.624C22.2529 21.9627 22.5195 21.0667 22.5409 19.936L22.8289 6.688L22.7969 6.656C22.3702 5.86666 21.9222 5.29067 21.4529 4.928C21.0049 4.56533 20.4822 4.384 19.8849 4.384C19.8209 4.384 19.7889 4.32 19.7889 4.192C19.7889 4.064 19.8209 4 19.8849 4L21.3889 4.032C21.6875 4.05333 22.0715 4.064 22.5409 4.064L24.2369 4.032C24.4289 4.01067 24.6742 4 24.9729 4C25.2502 4 25.4635 4.096 25.6129 4.288C25.7622 4.48 26.0395 4.93867 26.4449 5.664L33.4209 18.752L39.5009 4.8C39.6289 4.50133 39.7569 4.29867 39.8849 4.192C40.0342 4.064 40.2262 4 40.4609 4C40.6529 4 40.8662 4.01067 41.1009 4.032C41.3569 4.05333 41.6449 4.064 41.9649 4.064L43.8529 4.032C44.1515 4.01067 44.5782 4 45.1329 4C45.1969 4 45.2289 4.064 45.2289 4.192C45.2289 4.32 45.1969 4.384 45.1329 4.384C44.1302 4.384 43.4049 4.58667 42.9569 4.992C42.5089 5.39733 42.3062 6.02667 42.3489 6.88L43.1169 21.408C43.1595 22.0693 43.2342 22.5493 43.3409 22.848C43.4689 23.1467 43.6822 23.3493 43.9809 23.456C44.3009 23.5627 44.7915 23.616 45.4529 23.616ZM72.8904 23.616C72.933 23.616 72.9544 23.68 72.9544 23.808C72.9544 23.936 72.933 24 72.8904 24C72.165 24 71.589 23.9893 71.1624 23.968L68.7944 23.936L66.3944 23.968C65.989 23.9893 65.4344 24 64.7304 24C64.6664 24 64.6344 23.936 64.6344 23.808C64.6344 23.68 64.6664 23.616 64.7304 23.616C65.6264 23.616 66.2344 23.5093 66.5544 23.296C66.8744 23.0827 67.0344 22.6347 67.0344 21.952L67.0024 21.408L66.3304 8.32L59.7384 23.776C59.6957 23.8613 59.6104 23.904 59.4824 23.904C59.3544 23.904 59.269 23.8613 59.2264 23.776L51.1304 8.384L50.8744 19.936C50.853 21.088 51.077 21.9947 51.5464 22.656C52.037 23.296 52.7197 23.616 53.5944 23.616C53.6584 23.616 53.6904 23.68 53.6904 23.808C53.6904 23.936 53.6584 24 53.5944 24C53.0184 24 52.5704 23.9893 52.2504 23.968L50.4904 23.936L48.4744 23.968C48.133 23.9893 47.6744 24 47.0984 24C47.0344 24 47.0024 23.936 47.0024 23.808C47.0024 23.68 47.0344 23.616 47.0984 23.616C47.973 23.616 48.6664 23.2853 49.1784 22.624C49.6904 21.9627 49.957 21.0667 49.9784 19.936L50.2664 6.688L50.2344 6.656C49.8077 5.86666 49.3597 5.29067 48.8904 4.928C48.4424 4.56533 47.9197 4.384 47.3224 4.384C47.2584 4.384 47.2264 4.32 47.2264 4.192C47.2264 4.064 47.2584 4 47.3224 4L48.8264 4.032C49.125 4.05333 49.509 4.064 49.9784 4.064L51.6744 4.032C51.8664 4.01067 52.1117 4 52.4104 4C52.6877 4 52.901 4.096 53.0504 4.288C53.1997 4.48 53.477 4.93867 53.8824 5.664L60.8584 18.752L66.9384 4.8C67.0664 4.50133 67.1944 4.29867 67.3224 4.192C67.4717 4.064 67.6637 4 67.8984 4C68.0904 4 68.3037 4.01067 68.5384 4.032C68.7944 4.05333 69.0824 4.064 69.4024 4.064L71.2904 4.032C71.589 4.01067 72.0157 4 72.5704 4C72.6344 4 72.6664 4.064 72.6664 4.192C72.6664 4.32 72.6344 4.384 72.5704 4.384C71.5677 4.384 70.8424 4.58667 70.3944 4.992C69.9464 5.39733 69.7437 6.02667 69.7864 6.88L70.5544 21.408C70.597 22.0693 70.6717 22.5493 70.7784 22.848C70.9064 23.1467 71.1197 23.3493 71.4184 23.456C71.7384 23.5627 72.229 23.616 72.8904 23.616ZM96.8719 23.616C96.9572 23.6373 96.9892 23.712 96.9679 23.84C96.9679 23.9467 96.9359 24 96.8719 24H91.6239C91.0265 24 90.0025 23.4773 88.5519 22.432C86.9519 23.7333 84.9145 24.384 82.4399 24.384C80.9679 24.384 79.7305 24.1707 78.7279 23.744C77.7252 23.3173 76.9785 22.752 76.4879 22.048C75.9972 21.344 75.7519 20.5973 75.7519 19.808C75.7519 18.784 76.1039 17.8667 76.8079 17.056C77.5119 16.2453 78.5785 15.3067 80.0079 14.24C79.6665 13.792 79.3359 13.28 79.0159 12.704C78.7172 12.1067 78.4825 11.5413 78.3119 11.008C78.1625 10.4747 78.0879 9.888 78.0879 9.248C78.0879 7.52 78.6319 6.10133 79.7199 4.992C80.8292 3.88267 82.3332 3.328 84.2319 3.328C85.5545 3.328 86.5999 3.616 87.3679 4.192C88.1359 4.74667 88.5199 5.52533 88.5199 6.528C88.5199 7.36 88.2745 8.128 87.7839 8.832C87.3145 9.51467 86.7705 10.0907 86.1519 10.56C85.5332 11.0293 84.5732 11.7013 83.2719 12.576C84.8079 14.8587 86.9519 17.0987 89.7039 19.296C89.8959 18.5493 89.9919 17.7067 89.9919 16.768C89.9919 15.5307 89.7892 14.6347 89.3839 14.08C88.9785 13.504 88.3172 13.216 87.3999 13.216C87.3572 13.216 87.3252 13.152 87.3039 13.024C87.3039 12.896 87.3359 12.832 87.3999 12.832L95.0159 12.8C95.0799 12.8 95.1119 12.864 95.1119 12.992C95.1119 13.12 95.0799 13.184 95.0159 13.184C94.3759 13.184 93.8959 13.2587 93.5759 13.408C93.2772 13.536 93.0425 13.76 92.8719 14.08C92.7225 14.4 92.5519 14.912 92.3599 15.616C92.1252 16.4693 91.8799 17.248 91.6239 17.952C91.3679 18.656 91.0372 19.3387 90.6319 20C92.0185 21.0453 93.2452 21.8667 94.3119 22.464C95.3999 23.0613 96.2532 23.4453 96.8719 23.616ZM81.0959 6.496C81.0959 8.16 81.6825 9.96267 82.8559 11.904C84.3705 10.432 85.1279 8.864 85.1279 7.2C85.1279 6.26133 84.9039 5.52533 84.4559 4.992C84.0292 4.45867 83.4639 4.192 82.7599 4.192C82.1625 4.192 81.7359 4.384 81.4799 4.768C81.2239 5.152 81.0959 5.728 81.0959 6.496ZM84.9039 22.816C86.1412 22.816 87.1652 22.5387 87.9759 21.984C87.6345 21.7493 87.1759 21.3973 86.5999 20.928C85.5119 20.0533 84.4132 19.0827 83.3039 18.016C82.2159 16.928 81.2559 15.8613 80.4239 14.816C79.4639 15.8187 78.9839 16.8747 78.9839 17.984C78.9839 18.816 79.2185 19.6053 79.6879 20.352C80.1785 21.0773 80.8719 21.6747 81.7679 22.144C82.6639 22.592 83.7092 22.816 84.9039 22.816ZM103.49 21.28C103.49 21.9627 103.565 22.464 103.714 22.784C103.863 23.0827 104.141 23.296 104.546 23.424C104.973 23.552 105.645 23.616 106.562 23.616C106.626 23.616 106.658 23.68 106.658 23.808C106.658 23.936 106.626 24 106.562 24C105.687 24 105.005 23.9893 104.514 23.968L101.73 23.936L99.3941 23.968C98.9675 23.9893 98.3915 24 97.6661 24C97.6021 24 97.5701 23.936 97.5701 23.808C97.5701 23.68 97.6021 23.616 97.6661 23.616C98.3488 23.616 98.8395 23.5627 99.1381 23.456C99.4581 23.3493 99.6715 23.1467 99.7781 22.848C99.8848 22.528 99.9381 22.048 99.9381 21.408V6.592C99.9381 5.952 99.8848 5.48267 99.7781 5.184C99.6715 4.88533 99.4581 4.68266 99.1381 4.576C98.8181 4.448 98.3275 4.384 97.6661 4.384C97.6021 4.384 97.5701 4.32 97.5701 4.192C97.5701 4.064 97.6021 4 97.6661 4L99.3621 4.032C100.343 4.07467 101.122 4.096 101.698 4.096C102.21 4.096 102.818 4.064 103.522 4C103.799 3.97867 104.151 3.95733 104.578 3.936C105.005 3.91467 105.495 3.904 106.05 3.904C108.226 3.904 109.943 4.36267 111.202 5.28C112.461 6.176 113.09 7.57333 113.09 9.472C113.09 10.7947 112.749 11.9147 112.066 12.832C111.383 13.7493 110.498 14.4427 109.41 14.912C108.343 15.3813 107.245 15.616 106.114 15.616C105.538 15.616 105.037 15.5627 104.61 15.456C104.567 15.456 104.546 15.4027 104.546 15.296C104.546 15.232 104.557 15.168 104.578 15.104C104.621 15.04 104.663 15.0187 104.706 15.04C105.026 15.1253 105.389 15.168 105.794 15.168C106.775 15.168 107.586 14.7093 108.226 13.792C108.887 12.8747 109.218 11.5733 109.218 9.888C109.218 8.20267 108.855 6.90133 108.13 5.984C107.426 5.06667 106.391 4.608 105.026 4.608C104.429 4.608 104.023 4.74667 103.81 5.024C103.597 5.30133 103.49 5.84533 103.49 6.656V21.28ZM118.042 13.184C118.042 13.8027 118.255 14.336 118.682 14.784C119.13 15.232 119.77 15.7013 120.602 16.192C121.412 16.6613 122.01 17.0347 122.394 17.312C122.799 17.568 123.162 17.9413 123.482 18.432C123.802 18.9013 123.962 19.4773 123.962 20.16C123.962 20.8853 123.78 21.568 123.418 22.208C123.055 22.848 122.511 23.3707 121.786 23.776C121.06 24.16 120.196 24.352 119.194 24.352C118.02 24.352 116.911 24.064 115.866 23.488C115.738 23.36 115.674 23.232 115.674 23.104L115.61 19.936C115.61 19.872 115.663 19.84 115.77 19.84C115.898 19.8187 115.972 19.8293 115.994 19.872C116.335 20.9387 116.9 21.8453 117.69 22.592C118.479 23.3387 119.279 23.712 120.09 23.712C120.538 23.712 120.89 23.5733 121.146 23.296C121.423 23.0187 121.562 22.6133 121.562 22.08C121.562 21.2907 121.338 20.672 120.89 20.224C120.442 19.7547 119.78 19.2747 118.906 18.784C118.159 18.3787 117.594 18.048 117.21 17.792C116.826 17.536 116.484 17.1733 116.186 16.704C115.887 16.2347 115.738 15.6587 115.738 14.976C115.738 13.7173 116.186 12.8 117.082 12.224C117.978 11.6267 119.076 11.328 120.378 11.328C120.868 11.328 121.306 11.36 121.69 11.424C122.095 11.488 122.543 11.616 123.034 11.808C123.226 11.872 123.322 11.9893 123.322 12.16C123.322 12.6933 123.311 13.1093 123.29 13.408L123.258 15.008C123.258 15.072 123.194 15.104 123.066 15.104C122.938 15.104 122.874 15.072 122.874 15.008C122.874 14.6027 122.703 14.1653 122.362 13.696C122.02 13.2053 121.572 12.7893 121.018 12.448C120.484 12.1067 119.93 11.936 119.354 11.936C118.479 11.936 118.042 12.352 118.042 13.184ZM139.159 11.648C139.202 11.648 139.223 11.712 139.223 11.84C139.223 11.968 139.202 12.032 139.159 12.032C138.476 12.032 137.879 12.3307 137.367 12.928C136.876 13.504 136.428 14.3467 136.023 15.456L132.471 24.896C131.34 27.8827 130.252 29.9733 129.207 31.168C128.183 32.384 127.042 32.992 125.783 32.992C125.143 32.992 124.652 32.8533 124.311 32.576C123.97 32.32 123.799 31.936 123.799 31.424C123.799 30.9333 123.948 30.56 124.247 30.304C124.546 30.048 124.908 29.92 125.335 29.92C125.57 29.92 125.762 29.952 125.911 30.016C126.082 30.08 126.284 30.1867 126.519 30.336C126.924 30.6133 127.308 30.752 127.671 30.752C128.162 30.752 128.599 30.56 128.983 30.176C129.388 29.8133 129.804 29.1947 130.231 28.32C130.658 27.4667 131.17 26.24 131.767 24.64L126.647 14.304C126.178 13.3867 125.804 12.7787 125.527 12.48C125.271 12.1813 124.951 12.032 124.567 12.032C124.503 12.032 124.471 11.968 124.471 11.84C124.471 11.712 124.503 11.648 124.567 11.648C125.164 11.648 125.623 11.6587 125.943 11.68L127.287 11.712L129.495 11.68C129.836 11.6587 130.295 11.648 130.871 11.648C130.935 11.648 130.967 11.712 130.967 11.84C130.967 11.968 130.935 12.032 130.871 12.032C130.316 12.032 129.911 12.0853 129.655 12.192C129.399 12.2773 129.271 12.4267 129.271 12.64C129.271 12.8107 129.335 13.024 129.463 13.28L133.239 20.992L135.159 15.424C135.351 14.8693 135.447 14.368 135.447 13.92C135.447 13.3227 135.276 12.864 134.935 12.544C134.594 12.2027 134.103 12.032 133.463 12.032C133.42 12.032 133.399 11.968 133.399 11.84C133.399 11.712 133.42 11.648 133.463 11.648C134.039 11.648 134.476 11.6587 134.775 11.68L136.695 11.712L137.975 11.68C138.231 11.6587 138.626 11.648 139.159 11.648ZM146.191 24.384C144.783 24.384 143.588 24.0853 142.607 23.488C141.647 22.8693 140.922 22.08 140.431 21.12C139.962 20.1387 139.727 19.1147 139.727 18.048C139.727 16.704 140.1 15.5307 140.847 14.528C141.594 13.504 142.543 12.7253 143.695 12.192C144.868 11.6373 146.063 11.36 147.279 11.36C148.303 11.36 149.22 11.5733 150.031 12C150.863 12.4267 151.279 13.0133 151.279 13.76C151.279 14.1653 151.119 14.5173 150.799 14.816C150.5 15.0933 150.074 15.232 149.519 15.232C149.007 15.232 148.602 15.104 148.303 14.848C148.004 14.5707 147.759 14.1547 147.567 13.6C147.375 13.0027 147.183 12.5973 146.991 12.384C146.82 12.1493 146.5 12.032 146.031 12.032C145.114 12.032 144.378 12.4907 143.823 13.408C143.29 14.304 143.023 15.4987 143.023 16.992C143.023 18.7627 143.418 20.1813 144.207 21.248C144.996 22.2933 146.255 22.816 147.983 22.816C148.559 22.816 149.05 22.752 149.455 22.624C149.882 22.496 150.415 22.2827 151.055 21.984H151.087C151.151 21.984 151.204 22.016 151.247 22.08C151.311 22.144 151.322 22.1973 151.279 22.24C150.49 22.9653 149.7 23.5093 148.911 23.872C148.122 24.2133 147.215 24.384 146.191 24.384ZM168.009 23.616C168.094 23.616 168.137 23.68 168.137 23.808C168.137 23.936 168.094 24 168.009 24C167.454 24 167.006 23.9893 166.665 23.968L164.809 23.936L162.889 23.968C162.569 23.9893 162.132 24 161.577 24C161.534 24 161.513 23.936 161.513 23.808C161.513 23.68 161.534 23.616 161.577 23.616C162.238 23.616 162.686 23.4667 162.921 23.168C163.177 22.848 163.305 22.2613 163.305 21.408V16.8C163.305 15.648 163.092 14.7947 162.665 14.24C162.238 13.6853 161.577 13.408 160.681 13.408C160.169 13.408 159.636 13.5147 159.081 13.728C158.548 13.9413 158.078 14.2293 157.673 14.592V21.408C157.673 22.2613 157.79 22.848 158.025 23.168C158.281 23.4667 158.74 23.616 159.401 23.616C159.486 23.616 159.529 23.68 159.529 23.808C159.529 23.936 159.486 24 159.401 24C158.846 24 158.398 23.9893 158.057 23.968L156.201 23.936L154.281 23.968C153.961 23.9893 153.524 24 152.969 24C152.926 24 152.905 23.936 152.905 23.808C152.905 23.68 152.926 23.616 152.969 23.616C153.63 23.616 154.078 23.4667 154.313 23.168C154.569 22.848 154.697 22.2613 154.697 21.408V5.152C154.697 4.40533 154.622 3.872 154.473 3.552C154.345 3.232 154.11 3.072 153.769 3.072C153.47 3.072 153.065 3.18933 152.553 3.424H152.521C152.457 3.424 152.393 3.37067 152.329 3.264C152.286 3.136 152.286 3.06133 152.329 3.04L157.001 0.831999L157.161 0.799999C157.268 0.799999 157.374 0.853333 157.481 0.959999C157.609 1.04533 157.673 1.13067 157.673 1.216V13.888C159.188 12.1387 160.809 11.264 162.537 11.264C163.689 11.264 164.596 11.6373 165.257 12.384C165.94 13.1093 166.281 14.0693 166.281 15.264V21.408C166.281 22.2613 166.398 22.848 166.633 23.168C166.889 23.4667 167.348 23.616 168.009 23.616ZM176.162 24.416C174.839 24.416 173.677 24.1173 172.674 23.52C171.693 22.9013 170.935 22.08 170.402 21.056C169.869 20.0107 169.602 18.88 169.602 17.664C169.602 16.2773 169.954 15.104 170.658 14.144C171.362 13.1627 172.258 12.4373 173.346 11.968C174.434 11.4773 175.554 11.232 176.706 11.232C178.029 11.232 179.181 11.5413 180.162 12.16C181.143 12.7787 181.89 13.6 182.402 14.624C182.935 15.6267 183.202 16.704 183.202 17.856C183.202 19.136 182.882 20.2773 182.242 21.28C181.602 22.2613 180.738 23.0293 179.65 23.584C178.583 24.1387 177.421 24.416 176.162 24.416ZM177.122 23.744C177.954 23.744 178.583 23.3387 179.01 22.528C179.458 21.696 179.682 20.512 179.682 18.976C179.682 17.4827 179.49 16.2027 179.106 15.136C178.722 14.0693 178.221 13.2693 177.602 12.736C176.983 12.1813 176.322 11.904 175.618 11.904C173.911 11.904 173.058 13.4293 173.058 16.48C173.058 17.9093 173.239 19.1787 173.602 20.288C173.965 21.376 174.455 22.2293 175.074 22.848C175.693 23.4453 176.375 23.744 177.122 23.744ZM185.354 24C185.312 24 185.29 23.936 185.29 23.808C185.29 23.68 185.312 23.616 185.354 23.616C186.016 23.616 186.464 23.4667 186.698 23.168C186.954 22.848 187.082 22.2613 187.082 21.408L187.114 5.152C187.114 4.40533 187.04 3.872 186.89 3.552C186.762 3.232 186.528 3.072 186.186 3.072C185.909 3.072 185.504 3.18933 184.97 3.424H184.938C184.874 3.424 184.81 3.37067 184.746 3.264C184.704 3.136 184.704 3.06133 184.746 3.04L189.45 0.831999L189.578 0.799999C189.685 0.799999 189.802 0.853333 189.93 0.959999C190.058 1.04533 190.122 1.13067 190.122 1.216V21.408C190.122 22.2613 190.24 22.848 190.474 23.168C190.709 23.4667 191.157 23.616 191.818 23.616C191.904 23.616 191.946 23.68 191.946 23.808C191.946 23.936 191.904 24 191.818 24C191.285 24 190.858 23.9893 190.538 23.968L188.586 23.936L186.666 23.968C186.346 23.9893 185.909 24 185.354 24ZM200.381 24.416C199.058 24.416 197.896 24.1173 196.893 23.52C195.912 22.9013 195.154 22.08 194.621 21.056C194.088 20.0107 193.821 18.88 193.821 17.664C193.821 16.2773 194.173 15.104 194.877 14.144C195.581 13.1627 196.477 12.4373 197.565 11.968C198.653 11.4773 199.773 11.232 200.925 11.232C202.248 11.232 203.4 11.5413 204.381 12.16C205.362 12.7787 206.109 13.6 206.621 14.624C207.154 15.6267 207.421 16.704 207.421 17.856C207.421 19.136 207.101 20.2773 206.461 21.28C205.821 22.2613 204.957 23.0293 203.869 23.584C202.802 24.1387 201.64 24.416 200.381 24.416ZM201.341 23.744C202.173 23.744 202.802 23.3387 203.229 22.528C203.677 21.696 203.901 20.512 203.901 18.976C203.901 17.4827 203.709 16.2027 203.325 15.136C202.941 14.0693 202.44 13.2693 201.821 12.736C201.202 12.1813 200.541 11.904 199.837 11.904C198.13 11.904 197.277 13.4293 197.277 16.48C197.277 17.9093 197.458 19.1787 197.821 20.288C198.184 21.376 198.674 22.2293 199.293 22.848C199.912 23.4453 200.594 23.744 201.341 23.744ZM216.645 22.592C217.904 22.8053 218.906 23.0187 219.653 23.232C220.4 23.4453 221.04 23.808 221.573 24.32C222.128 24.832 222.405 25.5573 222.405 26.496C222.405 27.648 222.032 28.7253 221.285 29.728C220.56 30.7307 219.568 31.5307 218.309 32.128C217.072 32.7253 215.728 33.024 214.277 33.024C212.698 33.024 211.408 32.6827 210.405 32C209.402 31.3173 208.901 30.432 208.901 29.344C208.901 28.6187 209.136 27.872 209.605 27.104C210.074 26.336 210.949 25.4933 212.229 24.576C211.589 24.384 211.088 24.1067 210.725 23.744C210.384 23.3813 210.213 22.8907 210.213 22.272C210.213 21.7387 210.416 21.1947 210.821 20.64C211.248 20.064 211.898 19.5307 212.773 19.04C211.834 18.72 211.109 18.2293 210.597 17.568C210.085 16.9067 209.829 16.192 209.829 15.424C209.829 14.5707 210.106 13.8453 210.661 13.248C211.216 12.6507 211.92 12.2027 212.773 11.904C213.626 11.584 214.48 11.424 215.333 11.424C216.762 11.424 217.946 11.776 218.885 12.48C219.461 12.096 220.026 11.808 220.581 11.616C221.136 11.424 221.733 11.328 222.373 11.328C222.544 11.328 222.629 11.6267 222.629 12.224C222.629 12.5227 222.586 12.8533 222.501 13.216C222.416 13.5787 222.341 13.728 222.277 13.664C221.381 13.3013 220.581 13.12 219.877 13.12H219.621C220.176 13.7813 220.453 14.528 220.453 15.36C220.453 16.1707 220.176 16.8853 219.621 17.504C219.088 18.1013 218.394 18.56 217.541 18.88C216.688 19.2 215.813 19.36 214.917 19.36C214.341 19.36 213.797 19.296 213.285 19.168C212.858 19.5093 212.645 19.9467 212.645 20.48C212.645 20.9493 212.816 21.312 213.157 21.568C213.52 21.824 213.957 22.016 214.469 22.144C214.981 22.272 215.706 22.4213 216.645 22.592ZM214.277 12.032C213.381 12.032 212.933 12.8747 212.933 14.56C212.933 15.6693 213.2 16.6507 213.733 17.504C214.266 18.3573 214.949 18.784 215.781 18.784C216.186 18.784 216.538 18.5707 216.837 18.144C217.157 17.7173 217.317 17.0453 217.317 16.128C217.317 14.976 217.018 14.0053 216.421 13.216C215.824 12.4267 215.109 12.032 214.277 12.032ZM215.973 32C217.082 32 217.978 31.6693 218.661 31.008C219.365 30.368 219.717 29.504 219.717 28.416C219.717 27.6053 219.482 26.976 219.013 26.528C218.565 26.1013 218.01 25.792 217.349 25.6C216.709 25.4293 215.824 25.2587 214.693 25.088L212.965 24.8C212.368 25.504 212.069 26.5067 212.069 27.808C212.069 29.152 212.432 30.1867 213.157 30.912C213.882 31.6373 214.821 32 215.973 32ZM238.128 11.648C238.17 11.648 238.192 11.712 238.192 11.84C238.192 11.968 238.17 12.032 238.128 12.032C237.445 12.032 236.848 12.3307 236.336 12.928C235.845 13.504 235.397 14.3467 234.992 15.456L231.44 24.896C230.309 27.8827 229.221 29.9733 228.176 31.168C227.152 32.384 226.01 32.992 224.752 32.992C224.112 32.992 223.621 32.8533 223.28 32.576C222.938 32.32 222.768 31.936 222.768 31.424C222.768 30.9333 222.917 30.56 223.216 30.304C223.514 30.048 223.877 29.92 224.304 29.92C224.538 29.92 224.73 29.952 224.88 30.016C225.05 30.08 225.253 30.1867 225.488 30.336C225.893 30.6133 226.277 30.752 226.64 30.752C227.13 30.752 227.568 30.56 227.952 30.176C228.357 29.8133 228.773 29.1947 229.2 28.32C229.626 27.4667 230.138 26.24 230.736 24.64L225.616 14.304C225.146 13.3867 224.773 12.7787 224.496 12.48C224.24 12.1813 223.92 12.032 223.536 12.032C223.472 12.032 223.44 11.968 223.44 11.84C223.44 11.712 223.472 11.648 223.536 11.648C224.133 11.648 224.592 11.6587 224.912 11.68L226.256 11.712L228.464 11.68C228.805 11.6587 229.264 11.648 229.84 11.648C229.904 11.648 229.936 11.712 229.936 11.84C229.936 11.968 229.904 12.032 229.84 12.032C229.285 12.032 228.88 12.0853 228.624 12.192C228.368 12.2773 228.24 12.4267 228.24 12.64C228.24 12.8107 228.304 13.024 228.432 13.28L232.208 20.992L234.128 15.424C234.32 14.8693 234.416 14.368 234.416 13.92C234.416 13.3227 234.245 12.864 233.904 12.544C233.562 12.2027 233.072 12.032 232.432 12.032C232.389 12.032 232.368 11.968 232.368 11.84C232.368 11.712 232.389 11.648 232.432 11.648C233.008 11.648 233.445 11.6587 233.744 11.68L235.664 11.712L236.944 11.68C237.2 11.6587 237.594 11.648 238.128 11.648Z" fill="white"/>
</g>
<defs>
<filter id="filter0_d_8_20078" x="0.696289" y="0.800049" width="241.495" height="40.2239" filterUnits="userSpaceOnUse" color-interpolation-filters="sRGB">
<feFlood flood-opacity="0" result="BackgroundImageFix"/>
<feColorMatrix in="SourceAlpha" type="matrix" values="0 0 0 0 0 0 0 0 0 0 0 0 0 0 0 0 0 0 127 0" result="hardAlpha"/>
<feOffset dy="4"/>
<feGaussianBlur stdDeviation="2"/>
<feComposite in2="hardAlpha" operator="out"/>
<feColorMatrix type="matrix" values="0 0 0 0 0 0 0 0 0 0 0 0 0 0 0 0 0 0 0.25 0"/>
<feBlend mode="normal" in2="BackgroundImageFix" result="effect1_dropShadow_8_20078"/>
<feBlend mode="normal" in="SourceGraphic" in2="effect1_dropShadow_8_20078" result="shape"/>
</filter>
</defs>
</svg>
